<?xml version="1.0" encoding="UTF-8" standalone="no"?>
<svg viewBox="0 0 311 390" version="1.1" xmlns="http://www.w3.org/2000/svg" xmlns:svg="http://www.w3.org/2000/svg"><g stroke="none" stroke-width="1" fill="none" fill-rule="evenodd" id="g3" transform="translate(0.13510201,39.302948)"><g transform="translate(-0.491704)" fill="#000000" id="g2"><path d="M 159.24394,183.80438 38.842912,304.56816 c -8.678862,8.70501 -22.771276,8.72621 -31.4762863,0.0473 -0.019492,-0.0194 -0.038947,-0.0389 -0.058367,-0.0584 -8.7144308,-8.75296 -8.7094661,-22.90502 0.011104,-31.65186 L 127.79471,152.06692 c -9.42976,-15.21513 -14.87626,-33.17556 -14.87626,-52.412741 0,-54.881021 44.32808,-99.37087986 99.00954,-99.37087986 54.68145,0 99.00953,44.48985886 99.00953,99.37087986 0,54.881021 -44.32808,99.370881 -99.00953,99.370881 -19.36225,0 -37.42638,-5.57818 -52.68405,-15.22068 z m 52.68405,-2.07859 c 45.16207,0 81.77316,-36.74471 81.77316,-82.071611 0,-45.326898 -36.61109,-82.07161 -81.77316,-82.07161 -45.16208,0 -81.77317,36.744712 -81.77317,82.07161 0,45.326901 36.61109,82.071611 81.77317,82.071611 z" fill-rule="nonzero" id="path1"/><path d="m 175.7712,73.154854 c 0.39021,-19.101958 13.96982,-32.457799 37.92924,-32.457799 22.3205,0 37.07076,12.346388 37.07076,30.050642 0,11.725185 -5.69719,19.87846 -16.70136,26.32343 -10.37981,5.979073 -13.26743,9.783933 -13.26743,17.393653 v 4.11546 h -20.68158 l -0.15609,-4.50371 c -1.01456,-12.19109 3.27784,-19.17961 14.04787,-25.469279 10.06764,-5.979068 13.11134,-9.78393 13.11134,-17.160702 0,-7.376773 -5.93132,-12.734639 -14.8283,-12.734639 -8.97503,0 -14.90635,5.668467 -15.37461,14.442944 z m 34.96358,82.542196 c -7.02394,0 -12.72113,-5.35786 -12.72113,-12.19108 0,-6.83322 5.69719,-12.19109 12.72113,-12.19109 7.10197,0 12.79916,5.35787 12.79916,12.19109 0,6.83322 -5.69719,12.19108 -12.79916,12.19108 z" id="path2"/></g></g></svg>